<?xml version="1.0" encoding="UTF-8"?>
<svg width="33" height="33" viewBox="0 0 33 33" version="1.1" xmlns="http://www.w3.org/2000/svg" xmlns:xlink="http://www.w3.org/1999/xlink">
    <!-- Generator: Sketch 47.1 (45422) - http://www.bohemiancoding.com/sketch -->
    <title>Amex Icon</title>
    <desc>Created with Sketch.</desc>
    <defs></defs>
    <g id="Scheda-Salone" stroke="none" stroke-width="1" fill="none" fill-rule="evenodd">
        <g id="Payment-Type" transform="translate(-188.000000, -32.000000)" fill="#939999">
            <path d="M203.639,41.122 L202.921,41.122 L202.921,40.609 L203.639,40.609 C203.848,40.609 204.019,40.724 204.019,40.865 C204.019,41.007 203.848,41.122 203.639,41.122 L203.639,41.122 Z M204.793,40.783 C204.793,39.885 203.913,39.991 203.913,39.991 L202.225,39.991 L202.225,42.698 L202.921,42.698 L202.921,41.759 L203.597,41.759 C204.033,41.759 204.061,42.171 204.061,42.171 L204.061,42.698 L204.742,42.698 L204.742,42.029 C204.742,41.571 204.404,41.415 204.404,41.415 C204.404,41.415 204.793,41.25 204.793,40.783 L204.793,40.783 Z M213.889,44.717 C213.889,44.717 213.383,44.748 213.383,44.525 C213.383,44.258 213.754,44.332 213.754,44.332 L214.826,44.332 L214.826,43.7 L213.495,43.7 C213.495,43.7 212.628,43.65 212.628,44.534 C212.628,45.422 213.587,45.34 213.587,45.34 C213.587,45.34 214.176,45.321 214.176,45.565 C214.176,45.825 213.782,45.779 213.782,45.779 L212.702,45.779 L212.702,46.402 L213.94,46.402 C213.94,46.402 213.971,46.406 214.024,46.406 C214.266,46.406 214.95,46.328 214.95,45.454 C214.95,44.639 213.889,44.717 213.889,44.717 L213.889,44.717 Z M207.765,46.407 L209.934,46.407 L209.934,45.821 L208.465,45.821 L208.465,45.363 L209.897,45.363 L209.897,44.748 L208.465,44.748 L208.465,44.332 L209.934,44.332 L209.934,43.705 L207.765,43.705 L207.765,46.407 Z M193.7,41.438 L194.038,40.632 L194.377,41.438 L193.7,41.438 Z M198.605,40.829 L198.605,42.698 L199.309,42.698 L199.309,39.991 L198.21,39.991 L197.45,41.671 L196.686,39.991 L195.587,39.991 L195.587,42.478 L194.53,39.991 L193.552,39.991 L192.397,42.698 L193.158,42.698 L193.403,42.13 L194.673,42.13 L194.915,42.698 L196.287,42.698 L196.287,40.838 L197.163,42.698 L197.733,42.698 L198.605,40.829 Z M211.436,44.717 C211.436,44.717 210.931,44.748 210.931,44.525 C210.931,44.258 211.302,44.332 211.302,44.332 L212.378,44.332 L212.378,43.7 L211.042,43.7 C211.042,43.7 210.176,43.65 210.176,44.534 C210.176,45.422 211.135,45.34 211.135,45.34 C211.135,45.34 211.724,45.321 211.724,45.565 C211.724,45.825 211.335,45.779 211.335,45.779 L210.25,45.779 L210.25,46.402 L211.488,46.402 C211.488,46.402 211.519,46.406 211.571,46.406 C211.814,46.406 212.498,46.328 212.498,45.454 C212.498,44.639 211.436,44.717 211.436,44.717 L211.436,44.717 Z M203.514,44.831 L202.796,44.831 L202.796,44.318 L203.514,44.318 C203.723,44.318 203.894,44.433 203.894,44.575 C203.894,44.717 203.723,44.831 203.514,44.831 L203.514,44.831 Z M202.1,46.018 L201.238,45.075 L202.1,44.135 L202.1,46.018 Z M199.601,45.821 L198.137,45.821 L198.137,45.363 L199.564,45.363 L199.564,44.749 L198.137,44.749 L198.137,44.333 L199.601,44.333 L200.288,45.075 L199.601,45.821 Z M203.787,43.696 L202.1,43.696 L202.1,43.7 L201.567,43.7 L200.765,44.557 L199.968,43.696 L197.437,43.696 L197.437,46.407 L200.023,46.407 L200.765,45.605 L201.502,46.407 L202.796,46.407 L202.796,45.537 L203.477,45.537 C204.376,45.537 204.668,45.289 204.668,44.492 C204.668,43.6 203.787,43.696 203.787,43.696 L203.787,43.696 Z M206.323,44.836 L205.605,44.836 L205.605,44.323 L206.323,44.323 C206.532,44.323 206.703,44.437 206.703,44.58 C206.703,44.722 206.532,44.836 206.323,44.836 L206.323,44.836 Z M207.478,44.497 C207.478,43.6 206.597,43.705 206.597,43.705 L204.909,43.705 L204.909,46.411 L205.605,46.411 L205.605,45.473 L206.281,45.473 C206.717,45.473 206.745,45.885 206.745,45.885 L206.745,46.411 L207.422,46.411 L207.422,45.742 C207.422,45.285 207.088,45.129 207.088,45.129 C207.088,45.129 207.478,44.964 207.478,44.497 L207.478,44.497 Z M208.924,40.632 L209.258,41.438 L208.581,41.438 L208.924,40.632 Z M206.953,42.698 L208.043,42.698 L208.284,42.13 L209.555,42.13 L209.8,42.698 L211.163,42.698 L211.163,40.888 L212.266,42.698 L213.226,42.698 L213.226,39.991 L212.526,39.991 L212.526,41.772 L211.436,39.991 L210.453,39.991 L210.453,42.445 L209.41,39.991 L208.437,39.991 L207.575,42.01 C207.549,42.019 206.748,42.303 206.745,41.388 C206.745,41.33 206.748,41.268 206.754,41.2 C206.81,40.609 207.269,40.609 207.269,40.609 L207.973,40.6 L207.973,39.991 L207.116,39.968 C207.079,39.977 206.018,39.917 206.018,41.42 C206.018,42.565 206.953,42.698 206.953,42.698 L206.953,42.698 Z M201.864,42.112 L200.394,42.112 L200.394,41.653 L201.827,41.653 L201.827,41.039 L200.394,41.039 L200.394,40.623 L201.864,40.623 L201.864,39.991 L199.694,39.991 L199.694,42.697 L201.864,42.697 L201.864,42.112 Z M205.081,42.706 L205.78,42.706 L205.78,39.991 L205.081,39.991 L205.081,42.706 Z M217.467,51.507 C217.467,52.054 217.023,52.499 216.476,52.499 L190.872,52.499 C190.325,52.499 189.88,52.054 189.88,51.507 L189.88,34.871 C189.88,34.325 190.325,33.88 190.872,33.88 L216.476,33.88 C217.023,33.88 217.467,34.325 217.467,34.871 L217.467,51.507 Z M216.476,32 L190.872,32 C189.288,32 188,33.288 188,34.871 L188,51.507 C188,53.091 189.288,54.38 190.872,54.38 L216.476,54.38 C218.06,54.38 219.348,53.091 219.348,51.507 L219.348,34.871 C219.348,33.288 218.06,32 216.476,32 L216.476,32 Z" id="Amex-Icon"></path>
        </g>
    </g>
</svg>