<svg xmlns="http://www.w3.org/2000/svg" width="37" height="33" viewBox="0 0 37 33">
    <path fill="#939999" fill-rule="evenodd" d="M0 2.231v19.327c0 .519.422.941.94.941h23.064v-1.881H1.881V3.171h22.123v-1.88H.94a.94.94 0 0 0-.94.94zm9.523 17.368a.944.944 0 0 0 .942-.942v-1.521c.844-.21 1.511-.654 1.941-1.295.481-.714.597-1.594.326-2.475-.357-1.165-1.359-2.178-2.679-2.711-.834-.337-1.383-.778-1.506-1.212-.075-.262.009-.561.25-.888.171-.233.356-.353.6-.388a1.05 1.05 0 0 1 .158-.011c.526 0 1.134.319 1.494.592a.937.937 0 0 0 .568.191.937.937 0 0 0 .752-.373.942.942 0 0 0-.182-1.321 5.295 5.295 0 0 0-1.722-.846V5.133a.943.943 0 0 0-1.884 0v1.314a2.742 2.742 0 0 0-1.301.992c-.595.808-.784 1.679-.545 2.52.291 1.026 1.195 1.871 2.614 2.443.798.321 1.39.889 1.583 1.517.104.336.073.63-.089.873-.332.494-.994.594-1.353.61l-.141.004c-.864 0-1.627-.355-1.824-.599a.935.935 0 0 0-.734-.352.942.942 0 0 0-.734 1.531c.499.621 1.45 1.085 2.524 1.241v1.43c0 .519.422.942.942.942zM35.689 1.291h-1.622v1.88h.682v17.447h-.682v1.881h1.622c.519 0 .94-.422.94-.941V2.231a.94.94 0 0 0-.94-.94zM16.771 9.464c0 .519.422.94.94.94h6.293v-1.88h-6.293a.941.941 0 0 0-.94.94zm0 4.861a.94.94 0 0 0 .94.939h6.293v-1.88h-6.293a.942.942 0 0 0-.94.941zm14.516 9.491h-4.333c-.12 0-.202-.033-.239-.033-.012 0-.02.004-.022.015V4.135c.065.007.129.01.192.01h4.47c.063 0 .128-.003.192-.01l.022 19.593c-.015.017-.109.088-.282.088zm-1.331 3.655h-1.658l-.779-1.774h3.216l-.779 1.774zm-3.071-25.59h4.47a.192.192 0 0 1 0 .384h-4.47a.192.192 0 0 1 0-.384zM31.355 0h-4.47c-1.143 0-2.073.93-2.055 2.134a.562.562 0 0 0-.018.115v21.562c0 .068.01.135.024.173a.916.916 0 0 0 .069.447l3.361 7.639c.026.056.058.095.093.142a.72.72 0 0 0 .104.139c.054.053.111.088.171.126.017.014.114.069.134.079.069.029.135.038.222.052.023.006.113.019.136.019.057 0 .105-.011.191-.028.044-.007.104-.017.088-.024a.376.376 0 0 0 .1-.025c.057-.026.097-.058.151-.097.019-.013.117-.085.133-.101a.94.94 0 0 0 .125-.168.888.888 0 0 0 .074-.117l3.362-7.637a.88.88 0 0 0 .064-.471c.003-.017.014-.132.014-.148l-.01-21.625c.002-.015.01-.099.01-.113A2.075 2.075 0 0 0 31.355 0z"/>
</svg>
