<?xml version="1.0" standalone="no"?>
<!DOCTYPE svg PUBLIC "-//W3C//DTD SVG 1.1//EN" "http://www.w3.org/Graphics/SVG/1.1/DTD/svg11.dtd" >
<svg xmlns="http://www.w3.org/2000/svg">
<metadata>Generated by IcoMoon</metadata>
<defs>
<font id="uala" horiz-adv-x="1024">
<font-face units-per-em="1024" ascent="960" descent="-64" />
<missing-glyph horiz-adv-x="1024" />
<glyph unicode="&#x20;" horiz-adv-x="512" d="" />
<glyph unicode="&#xe61f;" glyph-name="bomb" horiz-adv-x="960" d="M938.659 746.429c0 0-85.313 0-85.313 0-11.777 0-21.342 9.537-21.342 21.315s9.565 21.315 21.342 21.315c0 0 85.313 0 85.313 0 11.777 0 21.342-9.537 21.342-21.315s-9.565-21.315-21.342-21.315zM843.425 812.961c-4.161-4.161-9.629-6.236-15.069-6.236-5.468 0-10.909 2.078-15.069 6.236-8.348 8.321-8.348 21.79 0 30.148 0 0 60.323 60.286 60.323 60.286 8.321 8.348 21.827 8.348 30.175 0 8.321-8.284 8.321-21.79 0-30.148 0 0-60.35-60.286-60.35-60.286zM843.425 722.527c0 0 60.35-60.259 60.35-60.259 8.348-8.321 8.348-21.79 0-30.175-4.161-4.125-9.629-6.209-15.106-6.209-5.441 0-10.909 2.078-15.069 6.209 0 0-60.387 60.286-60.387 60.286-8.321 8.321-8.321 21.79 0 30.148 8.348 8.348 21.854 8.321 30.212 0zM767.996 746.429c-11.741 0-21.342-9.565-21.342-21.315 0-58.787-47.841-106.592-106.656-106.592s-106.656 47.805-106.656 106.592c0 47.009-38.273 85.249-85.341 85.249s-85.341-38.24-85.341-85.249c0 0 0-42.622 0-42.622s63.999 0 63.999 0c11.777 0 21.342-9.565 21.342-21.342 0 0 0-59.966 0-59.966 138.98-45.693 234.661-176.516 234.661-323.716 0-188.065-153.089-341.062-341.318-341.062s-341.345 152.997-341.345 341.062c0 147.2 95.71 278.019 234.661 323.716 0 0 0 59.966 0 59.966 0 11.777 9.565 21.342 21.342 21.342 0 0 63.999 0 63.999 0s0 42.622 0 42.622c0 70.528 57.406 127.906 127.998 127.906s127.998-57.379 127.998-127.906c0-35.268 28.703-63.971 63.999-63.971s63.999 28.703 63.999 63.971c0 35.268 28.703 63.935 63.999 63.935 11.777 0 21.342-9.537 21.342-21.315s-9.565-21.315-21.342-21.315zM277.338 639.838c0 0 0-54.462 0-54.462 0-9.601-6.401-18.014-15.645-20.574-128.958-35.616-219.044-153.765-219.044-287.332 0-164.574 133.987-298.433 298.689-298.433 164.674 0 298.661 133.859 298.661 298.433 0 133.566-90.078 251.716-219.044 287.332-9.217 2.59-15.618 11.009-15.618 20.574 0 0 0 54.462 0 54.462s-127.998 0-127.998 0zM219.384 452.313c-96.515-67.199-120.289-200.321-53.026-296.768 6.721-9.665 4.353-22.942-5.313-29.663-3.741-2.59-8.001-3.805-12.189-3.805-6.748 0-13.378 3.165-17.502 9.117-39.105 56.062-54.014 123.965-41.982 191.238 11.997 67.263 49.533 125.821 105.631 164.866 9.693 6.721 22.942 4.353 29.7-5.313 6.748-9.629 4.38-22.942-5.313-29.663zM767.996 831.715c-11.777 0-21.342 9.537-21.342 21.315 0 0 0 85.249 0 85.249 0 11.777 9.565 21.315 21.342 21.315s21.342-9.537 21.342-21.315c0 0 0-85.249 0-85.249 0-11.777-9.537-21.315-21.342-21.315zM707.682 806.717c-5.468 0-10.945 2.078-15.106 6.236 0 0-60.323 60.286-60.323 60.286-8.348 8.348-8.348 21.854 0 30.148 8.348 8.348 21.827 8.348 30.175 0 0 0 60.323-60.286 60.323-60.286 8.348-8.348 8.348-21.827 0-30.148-4.161-4.161-9.629-6.236-15.069-6.236z" />
<glyph unicode="&#xe900;" glyph-name="notification-info" d="M1023.045 448.623c0-282.017-229.229-512.623-513.291-511.825-205.856 0.799-389.543 125.215-468.504 312.229-25.817 60.607-40.298 128.456-40.298 199.592 0 281.928 229.229 511.382 513.249 510.537 282.816-0.799 508.846-229.453 508.846-510.537 0 0 0 0 0 0zM512.2 763.654c0 0 0 0 0 0-31.857 0-56.787-25.058-56.787-57.365 0-31.103 24.928-56.52 56.787-56.52 30.97 0 56.385 25.416 56.385 56.52 0 32.301-25.416 57.365-56.385 57.365 0 0 0 0 0 0zM455.412 547.528c0 0 0 0 0 0s0-357.861 0-357.861c0-31.504 25.373-56.963 56.787-56.963 30.97 0 56.787 25.459 56.787 56.963 0 0 0 357.861 0 357.861 0 31.547-25.817 56.963-56.787 56.963-31.413 0-56.787-25.416-56.787-56.963 0 0 0 0 0 0zM513.397 846.077c0 0 0 0 0 0-220.787 0.754-398.829-178.529-398.829-397.455 0-55.363 11.24-107.486 31.413-155.114 61.228-145.474 203.86-241.982 364.218-242.427 161.913-0.754 306.189 95.353 367.817 242.427 20.128 47.634 31.815 99.749 31.815 155.114 0 54.075-11.684 106.993-31.815 155.072-60.874 145.431-204.256 241.538-364.618 242.383 0 0 0 0 0 0z" />
<glyph unicode="&#xe901;" glyph-name="notification-ko" horiz-adv-x="1057" d="M513.898 311.665c-13.197 0-24.283 9.881-25.818 22.972l-24.107 206.212c-2.165 18.417 3.667 36.902 15.989 50.745 11.835 13.302 29.537 20.93 48.546 20.93 18.992 0 36.694-7.627 48.529-20.947 12.325-13.826 18.155-32.312 15.989-50.728l-24.107-206.212c-1.536-13.092-12.639-22.972-25.818-22.972h-29.204zM528.491 152.252c-29.012 0-52.631 23.619-52.631 52.649s23.619 52.649 52.631 52.649c29.030 0 52.649-23.619 52.649-52.649s-23.619-52.649-52.649-52.649v0zM528.509 836.578c-11.94 0-22.642-6.18-28.611-16.531l-410.558-711.088c-5.969-10.334-5.969-22.676 0-33.010 5.969-10.351 16.67-16.513 28.611-16.513h821.097c11.958 0 22.642 6.162 28.611 16.496 5.969 10.351 5.969 22.693 0 33.027l-410.558 711.088c-5.969 10.351-16.653 16.531-28.594 16.531v0zM117.952-20.216c-40.742 0-77.21 21.069-97.582 56.349s-20.354 77.384 0.017 112.645l410.539 711.105c20.354 35.28 56.837 56.332 97.564 56.332 40.742 0 77.228-21.052 97.582-56.332l410.558-711.105c20.371-35.263 20.371-77.367 0-112.645-20.354-35.28-56.837-56.349-97.582-56.349h-821.097z" />
<glyph unicode="&#xe902;" glyph-name="search" d="M421.75 839.573c-166.112 0-301.247-135.136-301.247-301.247s135.136-301.308 301.247-301.308c166.112 0 301.247 135.2 301.247 301.308s-135.136 301.247-301.247 301.247zM923.568-46.698l-249.312 249.248c92.127 0-162.134-85.98-252.509-85.98-232.502 0-421.745 189.184-421.745 421.745 0 232.502 189.243 421.685 421.745 421.685s421.745-189.184 421.745-421.685c0-90.375-30.368-179.060-86.039-252.629l249.312-249.312c11.148-11.028 17.233-25.846 17.233-41.568s-6.086-30.549-17.294-41.632c-11.028-11.088-25.786-17.174-41.449-17.174-15.783 0-30.549 6.086-41.696 17.294z" />
<glyph unicode="&#xe903;" glyph-name="close" d="M950.303-60.814c-17.967 0-34.846 7.050-47.594 19.73l-393.895 394.032-394.032-394.032c-12.68-12.68-29.557-19.73-47.526-19.73-18.031 0-34.913 7.050-47.594 19.798-12.68 12.68-19.661 29.557-19.661 47.458 0 18.031 6.981 34.913 19.73 47.594l393.963 394.032-393.963 393.828c-12.748 12.748-19.73 29.626-19.73 47.661 0 17.9 6.981 34.779 19.73 47.526 12.612 12.68 29.489 19.73 47.526 19.73 17.967 0 34.846-7.050 47.526-19.73l394.032-393.963 393.895 393.963c12.748 12.68 29.626 19.73 47.594 19.73s34.846-7.050 47.594-19.73c26.104-26.301 26.104-68.88 0.067-95.117l-394.1-393.895 394.032-394.032c26.104-26.235 26.104-68.813 0.067-95.053-12.815-12.748-29.695-19.798-47.661-19.798z" />
<glyph unicode="&#xe904;" glyph-name="plus" d="M512-64c-53.097 0-96.235 43.138-96.235 96.235v319.522h-319.522c-52.999 0-96.137 43.138-96.137 96.235s43.138 96.346 96.137 96.346h319.522v319.426c0 53.097 43.138 96.235 96.235 96.235 53.208 0 96.235-43.138 96.235-96.235v-319.426h319.522c52.999 0 96.137-43.235 96.137-96.346s-43.138-96.235-96.137-96.235h-319.522v-319.522c0-53.097-43.040-96.235-96.235-96.235z" />
<glyph unicode="&#xe905;" glyph-name="add-button" d="M512 177.733c-19.684 0-35.721 16.032-35.721 35.721v202.418h-202.418c-19.684 0-35.721 16.032-35.721 35.721s16.032 35.721 35.721 35.721h202.418v202.418c0 19.684 16.032 35.721 35.721 35.721s35.721-16.032 35.721-35.721v-202.418h202.418c19.684 0 35.721-16.032 35.721-35.721s-16.032-35.721-35.721-35.721h-202.418v-202.418c0-19.684-16.032-35.721-35.721-35.721zM512 888.578c-242.941 0-440.556-197.655-440.556-440.556 0-242.941 197.615-440.594 440.556-440.594s440.556 197.655 440.556 440.594c0 242.902-197.615 440.556-440.556 440.556zM0 448.022c0 282.315 229.685 511.956 512 511.956s512-229.646 512-511.956c0-282.352-229.685-512-512-512s-512 229.646-512 512z" />
<glyph unicode="&#xe906;" glyph-name="remove-button" d="M476.278 415.871h-202.418c-19.685 0-35.721 16.032-35.721 35.721s16.032 35.721 35.721 35.721h476.278c19.685 0 35.721-16.032 35.721-35.721s-16.032-35.721-35.721-35.721h-202.418zM512 888.578c-242.941 0-440.556-197.656-440.556-440.556 0-242.941 197.615-440.595 440.556-440.595s440.556 197.656 440.556 440.595c0 242.902-197.615 440.556-440.556 440.556zM512-63.978c-282.315 0-512 229.646-512 512 0 282.315 229.685 511.957 512 511.957s512-229.646 512-511.957c0-282.353-229.685-512-512-512z" />
<glyph unicode="&#xe907;" glyph-name="check" horiz-adv-x="1434" d="M529.293-59.544c-28.079 0.816-58.812 15.416-80.457 40.025l-415.758 471.4c-21.745 24.71-33.082 56.769-31.754 90.362 1.227 33.592 14.905 64.63 38.388 87.397 21.951 21.44 50.846 33.387 81.273 33.387 33.181 0 65.141-14.701 87.808-40.332l333.256-377.979 677.238 676.522c22.362 22.362 51.662 34.614 82.495 34.614 32.671 0 64.325-14.295 86.786-39.104 45.433-50.236 43.596-129.977-4.286-177.758l-765.046-764.224c-22.362-22.256-51.662-34.614-82.601-34.614l-7.35 0.305z" />
<glyph unicode="&#xe908;" glyph-name="chevron-down" horiz-adv-x="1707" d="M853.5-56.541c-46.002 0-89.415 17.918-121.807 50.481l-664.505 664.505c-67.193 67.193-67.193 176.592 0 243.61 32.563 32.563 75.805 50.481 121.807 50.481 46.173 0 89.415-17.918 121.978-50.481l542.527-542.699 542.699 542.699c32.387 32.563 75.635 50.481 121.807 50.481 46.002 0 89.415-17.918 121.807-50.481 67.193-67.017 67.193-176.422 0-243.61l-664.505-664.505c-32.387-32.563-75.805-50.481-121.807-50.481z" />
<glyph unicode="&#xe909;" glyph-name="chevron-left" horiz-adv-x="597" d="M513.658 954.312c20.267 0 39.435-7.939 53.788-22.294 29.555-29.555 29.555-77.856 0-107.41l-376.608-376.608 376.608-376.608c29.555-29.641 29.555-77.856 0-107.496-14.354-14.272-33.521-22.208-53.788-22.208s-39.435 7.939-53.788 22.208l-430.229 430.397c-29.641 29.555-29.641 77.856 0 107.41l430.229 430.316c14.354 14.354 33.521 22.294 53.788 22.294z" />
<glyph unicode="&#xe90a;" glyph-name="chevron-right" horiz-adv-x="597" d="M29.554-36.019c-29.555 29.555-29.555 77.855 0 107.41l376.609 376.609-376.609 376.609c-29.555 29.64-29.555 77.855 0 107.496 14.355 14.271 33.522 22.208 53.788 22.208s39.435-7.939 53.788-22.208l430.23-430.398c29.64-29.555 29.64-77.855 0-107.41l-430.23-430.316c-14.355-14.355-33.522-22.294-53.788-22.294s-39.435 7.939-53.788 22.294z" />
<glyph unicode="&#xe90b;" glyph-name="chevron-up" horiz-adv-x="1707" d="M853.5 952.539c46.002 0 89.415-17.918 121.807-50.481l664.505-664.505c67.193-67.193 67.193-176.592 0-243.61-32.564-32.564-75.805-50.481-121.807-50.481-46.173 0-89.415 17.918-121.978 50.481l-542.527 542.698-542.698-542.698c-32.387-32.564-75.635-50.481-121.807-50.481-46.002 0-89.415 17.918-121.807 50.481-67.193 67.017-67.193 176.422 0 243.61l664.505 664.505c32.387 32.564 75.805 50.481 121.807 50.481z" />
<glyph unicode="&#xe90c;" glyph-name="arrow" horiz-adv-x="1260" d="M762.28-47.771c-21.716 0-42.209 8.459-57.498 23.827-15.371 15.289-23.827 35.785-23.827 57.498s8.459 42.209 23.827 57.498l275.618 275.7h-899.075c-44.812 0-81.329 36.435-81.329 81.329 0 44.812 36.517 81.329 81.329 81.329h899.075l-275.618 275.538c-15.371 15.371-23.827 35.864-23.827 57.498 0 21.716 8.459 42.209 23.827 57.498 15.289 15.371 35.785 23.827 57.498 23.827s42.209-8.459 57.498-23.827l414.443-414.365c7.564-7.564 13.5-16.511 17.647-26.512 8.134-20.089 8.134-42.048 0.083-61.888-4.064-9.923-10.006-18.788-17.404-26.351l-414.77-414.77c-15.289-15.371-35.785-23.827-57.498-23.827z" />
<glyph unicode="&#xe90d;" glyph-name="goto" horiz-adv-x="1074" d="M-0.001 20.487v528.608c0 30.784 27.509 54.951 62.611 54.951l795.98 0.071-219.524 219.384c-11.841 11.841-18.317 27.651-18.317 44.364s6.48 32.527 18.317 44.364c11.841 11.841 27.651 18.317 44.364 18.317s32.527-6.48 44.364-18.317l326.357-326.499c5.64-5.574 10.376-12.467 13.651-20.478 6.198-15.112 6.198-32.597-0.071-47.847-3.204-7.871-7.937-14.835-13.787-20.615l-326.151-326.221c-11.841-11.841-27.651-18.317-44.364-18.317s-32.527 6.48-44.364 18.317c-24.375 24.516-24.375 64.213 0 88.729l219.524 219.384h-733.228v-458.2c0-30.784-27.509-55.022-62.682-55.022s-62.682 24.237-62.682 55.022z" />
<glyph unicode="&#xe90e;" glyph-name="heart-empty" horiz-adv-x="1195" d="M327.97 869.682c-4.733 0-9.464-0.136-14.292-0.408-145.518-8.575-221.608-144.025-221.608-273.376 0-178.778 268.938-396.051 465.319-554.695 12.084-9.794 25.959-14.942 40.067-14.942 13.97 0 27.706 5.055 39.79 14.67l21.409 17.058c228.504 181.664 444.275 353.174 444.275 537.903 0 129.354-76.185 264.8-221.659 273.376-4.916 0.273-9.742 0.408-14.519 0.408-102.422 0-193.12-64.043-225.747-159.411-6.019-17.696-23.113-29.154-43.512-29.154-20.448 0-37.537 11.465-43.607 29.154-32.578 95.368-123.42 159.411-225.93 159.411zM597.456-64c-35.701 0-69.705 12.275-98.421 35.477-222.251 179.545-498.861 402.998-498.861 624.424 0 171.6 105.772 351.59 308.039 363.463 6.752 0.408 13.554 0.588 20.26 0.588 107.614 0 207.549-51.588 269.026-136.799 61.388 85.216 161.279 136.847 268.704 136.847 6.846 0 13.737-0.224 20.583-0.631 202.173-11.872 308.039-191.863 308.039-363.463 0-227.792-232.316-412.521-478.279-608.040l-21.46-17.058c-28.577-22.751-62.353-34.796-97.638-34.796z" />
<glyph unicode="&#xe90f;" glyph-name="heart-full" horiz-adv-x="1195" d="M597.455-63.999c-35.7 0-69.705 12.274-98.42 35.478-222.25 179.546-498.86 402.998-498.86 624.423 0 171.6 105.771 351.589 308.040 363.464 6.752 0.409 13.553 0.589 20.259 0.589 107.616 0 207.549-51.588 269.025-136.801 61.388 85.216 161.279 136.847 268.704 136.847 6.846 0 13.736-0.224 20.582-0.631 202.173-11.872 308.040-191.863 308.040-363.464 0-227.792-232.316-412.52-478.279-608.039l-21.46-17.057c-28.576-22.752-62.354-34.795-97.637-34.795z" />
<glyph unicode="&#xe910;" glyph-name="chat" horiz-adv-x="1331" d="M295.419 604.4c-34.976 0-63.404 28.532-63.404 63.513s28.428 63.404 63.404 63.404h732.127c34.872 0 63.404-28.428 63.404-63.404s-28.532-63.513-63.404-63.513h-732.127zM295.419 367.37c-34.976 0-63.404 28.532-63.404 63.404 0 34.976 28.428 63.513 63.404 63.513h370.079c34.976 0 63.404-28.532 63.404-63.513 0-34.872-28.428-63.404-63.404-63.404h-370.079zM137.118 74.014l105.361 118.676c27.581 24.517 54.846 35.506 85.387 35.506h871.197l-5.281 610.175-1056.658-5.178v-759.179zM131.307-63.999c-17.33 0-34.239 3.806-50.406 11.201-43.54 20.077-70.591 62.453-70.591 110.432v780.735c0 67.104 54.528 121.632 121.632 121.632h1067.116c67.104 0 121.632-54.528 121.632-121.632v-615.456c0-66.998-54.528-121.632-121.632-121.632h-871.197l-110.642-129.768c-27.478-24.304-55.692-35.506-85.917-35.506v0z" />
<glyph unicode="&#xe911;" glyph-name="whatsapp" d="M514.117 30.497h-0.171c-76.038 0.032-150.62 20.363-215.677 58.783l-15.472 9.139-160.383-41.874 42.809 155.626-10.080 15.961c-42.414 67.147-64.82 144.75-64.79 224.442 0.094 232.53 190.184 421.709 423.929 421.709 113.183-0.035 219.578-43.964 299.586-123.68 80.007-79.71 124.043-185.678 123.997-298.364-0.096-232.543-190.188-421.741-423.753-421.741zM874.765 811.18c-96.256 95.907-224.27 148.755-360.654 148.81-281.012 0-509.721-227.612-509.84-507.373-0.033-89.436 23.441-176.725 68.058-253.67l-72.329-262.939 270.269 70.559c74.464-40.421 158.306-61.728 243.637-61.761h0.213c280.987 0 509.719 227.631 509.832 507.406 0.049 135.582-52.931 263.067-149.187 358.972zM746.553 346.363c-12.739 6.346-75.366 37.016-87.048 41.247-11.679 4.229-20.172 6.344-28.662-6.346-8.487-12.693-32.905-41.25-40.339-49.711-7.43-8.461-14.863-9.521-27.602-3.169-12.739 6.346-53.79 19.734-102.441 62.929-37.869 33.624-63.44 75.138-70.872 87.834-7.43 12.695-0.796 19.551 5.588 25.878 5.729 5.678 12.742 14.813 19.106 22.214 6.368 7.398 8.49 12.695 12.739 21.152 4.249 8.467 2.123 15.865-1.060 22.212-3.18 6.346-28.658 68.756-39.272 94.142-10.339 24.719-20.84 21.37-28.662 21.764-7.422 0.365-15.923 0.445-24.416 0.445-8.487 0-22.295-3.169-33.969-15.862-11.679-12.699-44.581-43.365-44.581-105.766 0-62.41 45.648-122.694 52.014-131.157 6.368-8.467 89.823-136.524 217.621-191.444 30.393-13.064 54.12-20.863 72.622-26.707 30.514-9.652 58.284-8.288 80.234-5.024 24.479 3.635 75.366 30.669 85.983 60.281 10.613 29.617 10.613 55.007 7.43 60.292-3.18 5.286-11.679 8.461-24.416 14.813z" />
<glyph unicode="&#xe912;" glyph-name="star-full" d="M198.069-46.783c-10.757 8.124-15.564 22.456-11.966 35.731l90.352 331.229-261.704 213.153c-10.443 8.504-14.75 23.052-10.625 36.135 4.147 13.112 15.85 22.292 29.156 22.892l333.135 13.652 115.541 322.778c4.411 12.353 16.217 20.342 30.044 20.342s25.64-7.987 30.044-20.342l115.515-322.778 333.083-13.652c13.381-0.595 25.112-9.804 29.209-22.892 4.147-13.060-0.132-27.63-10.655-36.164l-261.653-213.13 90.322-331.229c3.619-13.273-1.209-27.6-11.995-35.731-5.539-4.146-12.047-6.309-18.84-6.309-6.375 0-12.516 1.921-17.792 5.58l-277.268 191.023-277.239-191.050c-5.246-3.659-11.417-5.58-17.763-5.58-6.822 0-13.358 2.194-18.892 6.34z" />
<glyph unicode="&#xe913;" glyph-name="star-empty" d="M511.964 241.764l213.134-146.838-69.464 254.737 205.061 167.032-260.94 10.693-87.762 245.231-87.785-245.231-260.928-10.691 205.082-167.033-69.487-254.739 213.083 146.841zM216.961-53.123c-6.822 0-13.358 2.194-18.892 6.34-10.757 8.124-15.564 22.456-11.966 35.731l90.352 331.229-261.704 213.153c-10.443 8.504-14.75 23.052-10.625 36.135 4.147 13.112 15.85 22.292 29.156 22.892l333.135 13.652 115.541 322.778c4.411 12.353 16.217 20.342 30.044 20.342s25.64-7.987 30.044-20.342l115.515-322.778 333.083-13.652c13.381-0.595 25.112-9.804 29.209-22.892 4.147-13.060-0.132-27.63-10.655-36.164l-261.653-213.13 90.322-331.229c3.619-13.273-1.209-27.6-11.995-35.731-5.539-4.146-12.047-6.309-18.84-6.309-6.375 0-12.516 1.921-17.792 5.58l-277.268 191.023-277.239-191.050c-5.246-3.659-11.417-5.58-17.763-5.58z" />
<glyph unicode="&#xe914;" glyph-name="more" horiz-adv-x="5120" d="M512-64c282.772 0 512 229.228 512 512s-229.228 512-512 512c-282.772 0-512-229.228-512-512s229.228-512 512-512zM2560-64c282.772 0 512 229.228 512 512s-229.228 512-512 512c-282.772 0-512-229.228-512-512s229.228-512 512-512zM4608-64c282.772 0 512 229.228 512 512s-229.228 512-512 512c-282.772 0-512-229.228-512-512s229.228-512 512-512z" />
<glyph unicode="&#xe915;" glyph-name="email" horiz-adv-x="1497" d="M291.251 825.012h922.837l-465.23-386.699-457.607 386.699zM1177.161 414.415c-12.783 14.849-31.365 23.424-51.056 23.424-16.199 0-31.84-5.875-44.067-16.436-13.66-11.674-21.918-28.11-23.264-46.133-1.35-17.947 4.448-35.415 15.72-48.436l211.932-255.919h-1079.419l217.010 281.010c11.276 14.053 16.597 31.602 14.688 49.549-1.824 17.947-10.561 34.144-24.376 45.342-12.067 9.845-27.157 15.247-42.641 15.247-20.406 0-39.462-9.054-53.041-25.647l-169.447-219.552v551.621l555.909-469.835c12.067-10.163 27.552-15.8 43.357-15.8s31.047 5.557 43.116 15.564l556.226 462.211v-552.176l-170.64 205.976zM192.868 960c-33.43 0-64.318-9.845-90.997-25.807-52.486-31.602-87.584-87.978-87.584-152.855v-666.757c0-98.464 80.038-178.582 178.582-178.582h1111.261c98.464 0 178.582 80.118 178.582 178.582v666.757c0 98.464-80.118 178.657-178.582 178.657h-1111.261z" />
<glyph unicode="&#xe916;" glyph-name="franchising" d="M210.408 822.272c-39.603 0-71.793-30.485-71.793-68.048 0-37.088 31.916-67.506 71.11-67.847 40.897 0.884 72.54 31.232 72.54 67.847 0 37.562-32.185 68.048-71.862 68.048zM210.408 209.832c-39.603 0-71.793-30.485-71.793-68.048s32.185-68.048 71.793-68.048c39.671 0 71.862 30.485 71.862 68.048s-32.185 68.048-71.862 68.048zM210.408-62.362c-116.022 0-210.408 91.593-210.408 204.147 0 102.141 80.028 188.836 184.005 201.695l142.561 104.794-141.677 104.115c-104.456 12.386-184.89 99.148-184.89 201.832 0 112.554 94.386 204.147 210.408 204.147 116.090 0 210.476-91.593 210.476-204.147 0-59.613-26.607-114.732-71.725-152.837l92.887-68.252 471.784 346.844c14.222 8.098 25.997 11.091 37.972 11.091 24.566 0 47.564-12.859 60.086-33.411 9.46-15.721 12.112-34.095 7.418-51.852-4.83-18.032-16.605-33.005-33.206-42.123l-428.64-315.406 432.111-317.516c12.928-6.872 24.703-21.777 29.464-39.809 4.762-17.694 2.11-36.067-7.418-51.852-12.454-20.62-35.452-33.411-60.018-33.411-11.976 0-23.818 3.062-34.294 8.845l-475.251 348.953-93.228-68.594c45.323-38.178 72.062-93.297 72.062-153.11 0-112.554-94.386-204.147-210.476-204.147z" />
<glyph unicode="&#xe917;" glyph-name="order" d="M559.548 613.419c28.232 28.16 28.232 73.865 0 102.025l-216.756 216.396c-28.232 28.16-73.938 28.16-102.17 0l-216.756-216.396c-14.080-14.080-21.154-32.563-21.154-51.047 0-18.41 7.074-36.896 21.154-50.976 28.232-28.16 73.938-28.16 102.17 0l93.432 93.287v-691.497c0-39.856 32.349-72.132 72.278-72.132 39.856 0 72.205 32.277 72.205 72.132v691.497l93.432-93.287c28.232-28.16 73.938-28.16 102.17 0zM993.060 282.582c-28.232 28.232-73.938 28.232-102.17 0l-93.432-93.287v691.57c0 39.856-32.349 72.132-72.278 72.132-39.856 0-72.205-32.277-72.205-72.132v-691.57l-93.432 93.287c-28.232 28.232-73.938 28.232-102.17 0-14.080-14.080-21.154-32.49-21.154-50.976s7.074-36.896 21.154-50.976l216.756-216.469c28.232-28.16 73.938-28.16 102.17 0l216.756 216.469c28.232 28.16 28.232 73.793 0 101.953z" />
<glyph unicode="&#xe918;" glyph-name="zones" horiz-adv-x="1088" d="M543.996 647.416c-17.555 0-31.915-13.981-31.915-31.277 0-17.236 14.364-31.213 31.915-31.213s31.915 13.981 31.915 31.213c0 17.3-14.364 31.277-31.915 31.277v0zM543.996 459.875c-88.027 0-159.583 70.152-159.583 156.26 0 86.176 71.556 156.324 159.583 156.324s159.583-70.152 159.583-156.324c0-86.112-71.556-156.26-159.583-156.26v0zM836.923 273.802c49.661 87.771 123.898 231.904 123.898 292.416 0 53.172-25.086 102.323-65.493 128.238l-9.318 5.935-3.446 10.211c-1.978 5.744-4.148 11.424-6.51 16.981 12.32-34.915 18.959-72.45 18.959-111.453 0-66.515-42.45-168.965-96.706-272.691 0 0 34.915-63.132 38.62-69.642v0zM201.982 700.396l-9.318-5.935c-40.471-25.98-65.557-75.067-65.557-128.238 0-60.576 74.237-204.709 123.898-292.416 3.702 6.51 38.684 69.45 38.684 69.45-54.32 103.79-96.77 206.304-96.77 272.883 0 38.812 6.637 76.088 18.768 110.943-2.234-5.425-9.701-26.682-9.701-26.682v0zM543.932 834.953c-123.196 0-223.349-98.174-223.349-218.818 0-75.896 108.194-276.138 223.349-454.744 115.219 178.666 223.477 378.911 223.477 454.744 0 120.644-100.216 218.818-223.477 218.818v0zM517.697-26.72c-6.51 9.19-84.257 119.942-162.072 251.881l-7.467-12.769c-38.812-65.876-69.769-113.113-69.769-113.113l-26.873-41.109-26.873 41.109c-22.852 34.851-223.221 344.758-223.221 477.213 0 129.834 89.112 238.415 211.925 258.14l69.578 11.233c64.345 70.025 157.537 114.134 261.012 114.134 103.535 0 196.731-44.109 261.012-114.134l69.642-11.233c122.877-19.725 211.989-128.302 211.989-258.14 0-132.45-200.433-442.358-223.285-477.213l-26.873-41.109-26.873 41.109c0 0-30.958 47.236-69.706 113.176l-7.531 12.832c-77.811-132.004-155.622-242.819-162.136-252.009l-26.235-37.28-26.235 37.28z" />
<glyph unicode="&#xe919;" glyph-name="brand" horiz-adv-x="455" d="M398.125 942.533v-420.482h56.876v-568.584h-455.001v568.584h56.876v113.865h56.876v134.911l284.38 171.706zM227.441 706.667v-70.751h56.933v105.052l-56.933-34.295zM170.846 522.051h113.239v0.514h-113.239v-0.514zM113.745 66.874h227.56v341.877h-227.56v-341.877z" />
<glyph unicode="&#xe91a;" glyph-name="payable-online" horiz-adv-x="1161" d="M1024.228 755.205h-887.452v34.135c0 18.775 15.36 34.135 34.135 34.135h819.181c18.775 0 34.135-15.36 34.135-34.135v-34.135zM990.093 960h-819.181c-94.137 0-170.66-76.592-170.66-170.66v-170.729h1160.509v170.729c0 94.068-76.523 170.66-170.66 170.66v0zM136.776 140.729h341.328v136.602h-341.328v136.532h887.452v-307.193c0-18.775-15.36-34.135-34.135-34.135h-819.181c-18.775 0-34.135 15.36-34.135 34.135v34.066zM0.247 106.661c0-94.137 76.523-170.66 170.66-170.66h819.181c94.137 0 170.66 76.523 170.66 170.66v443.725h-1160.509v-443.725z" />
<glyph unicode="&#xe91b;" glyph-name="phone" horiz-adv-x="948" d="M202.902 776.477c-4.396 0-9.056-0.383-14.063-1.222-36.949-6.115-64.117-23.425-80.779-51.359-36.99-61.711-23.384-162.439 1.683-236.109 10.889-32.061 34.661-96.562 71.57-168.973l8.751-16.357c40.429-68.741 82.079-123.539 103.246-150.017 48.605-60.793 126.102-126.479 198.012-128.545l3.899-0.036c31.181 0 58.313 13.182 82.881 40.465 20.178 23.077 23.041 47.418 8.331 72.335-18.836 31.755-61.751 56.666-97.67 56.666-4.894 0-9.589-0.461-13.871-1.413-0.461-0.341-6.001-3.325-22.275-13.679-23.73-15.13-36.799-23.005-51.623-23.005l-5.462 0.419c-7.181 0.994-13.793 4.163-19.028 9.211-32.481 31.026-61.865 64.464-87.35 99.275-15.782 21.55-30.648 44.556-44.095 68.322l-1.832 3.785c-15.513 27.282-29.731 57.397-41.536 87.96-15.669 40.391-28.049 83.151-36.685 127.090-1.377 6.994-0.533 14.483 2.485 21.017 7.486 16.238 24.263 24.035 49.713 35.882 14.063 6.534 22.353 10.661 24.61 12.344 25.029 25.143 31.104 85.823 11.464 123.999-10.931 21.209-27.857 31.947-50.365 31.947v0zM489.412-44.847c-95.454 2.791-191.632 81.546-249.831 154.3-22.353 27.971-66.296 85.9-109.475 159.421l-9.781 18.076c-39.015 76.539-64.159 144.824-75.736 178.719-29.995 88.269-44.592 211.691 4.432 293.542 27.512 46.083 70.769 74.281 128.467 83.875 8.673 1.449 17.118 2.18 25.335 2.18 48.298 0 88.956-25.221 111.577-69.28 33.781-65.532 22.508-157.546-25.065-205.12-8.828-8.751-22.161-15.285-43.141-25.029-3.055-1.413-6.037-2.791-8.828-4.163 7.415-31.947 16.926-63.051 28.432-92.585 11.081-28.504 24.227-56.325 39.207-82.576l2.102-4.396c10.853-18.609 23.844-38.632 37.524-57.355 18.645-25.486 39.704-50.21 62.781-73.748 2.904 1.797 5.768 3.63 8.253 5.199 19.489 12.458 32.176 20.178 44.364 22.85 8.787 1.947 18.148 2.941 27.821 2.941 60.415 0 126.748-37.984 157.775-90.333 30.224-51.051 24.341-106.803-16.124-153-38.021-42.225-83.34-63.621-134.733-63.621l-5.349 0.114zM878.696 289.127c-3.133 0-6.229 0.461-9.248 1.299-8.787 2.444-16.166 8.176-20.673 16.166s-5.696 17.274-3.211 26.174c31.258 113.147 16.621 231.641-41.193 333.743-57.891 102.102-152.083 175.583-265.188 206.881-8.828 2.444-16.238 8.217-20.748 16.202s-5.654 17.274-3.211 26.137c4.049 14.788 17.693 25.221 33.128 25.221 3.096 0 6.151-0.419 9.092-1.222 130.953-36.263 239.817-121.208 306.724-239.283 66.949-118.153 83.834-255.256 47.652-386.055-4.049-14.865-17.693-25.257-33.128-25.257zM660.211 349.578c-2.982 0-6.001 0.419-8.943 1.186-9.133 2.558-16.471 8.29-20.98 16.279s-5.696 17.274-3.173 26.137c15.094 54.756 8.025 112.152-19.986 161.559-28.049 49.448-73.634 85.062-128.389 100.155-18.339 5.121-29.043 24.113-23.958 42.376 4.013 14.751 17.654 25.18 33.092 25.18 3.096 0 6.151-0.419 9.133-1.222 72.562-20.059 132.863-67.136 169.968-132.558 37.064-65.458 46.466-141.422 26.366-213.87-4.049-14.824-17.693-25.221-33.128-25.221z" />
<glyph unicode="&#xe91c;" glyph-name="cash" d="M508.54 697.767c-44.368 0-80.421-36.053-80.421-80.421s36.053-80.455 80.421-80.455c44.334 0 80.392 36.088 80.392 80.455s-36.053 80.421-80.392 80.421v0zM508.54 480.437c-75.477 0-136.881 61.433-136.881 136.91 0 75.448 61.404 136.881 136.881 136.881s136.847-61.433 136.847-136.881c0-75.477-61.37-136.91-136.847-136.91v0zM56.46 747.68c75.7 12.595 133.7 73.84 142.077 150.106h-142.077v-150.106zM825.439 897.78c8.378-76.266 66.378-137.51 142.106-150.106v150.106h-142.106zM967.546 336.882v140.692c-72.484-11.995-128.692-68.238-140.692-140.692h140.692zM631.973 280.423c-15.554 0-28.247 12.658-28.247 28.213s12.687 28.247 28.247 28.247h137.036c12.784 103.815 94.716 185.719 198.531 198.531v154.45c-106.62 13.225-190.502 100.765-199.321 207.917h-512.472c-8.848-107.157-92.764-194.662-199.287-207.917v-166.353c0-15.554-12.687-28.213-28.247-28.213-15.526 0-28.213 12.658-28.213 28.213v402.482c0 15.554 12.687 28.213 28.213 28.213h967.575c15.554 0 28.213-12.658 28.213-28.213v-617.358c0-15.554-12.658-28.213-28.213-28.213h-363.814zM287.021 459.338c-142.832 0-230.556-48.145-230.556-82.659 0-34.542 87.728-82.688 230.556-82.688s230.527 48.145 230.527 82.688c0 34.513-87.694 82.659-230.527 82.659v0zM287.021 237.537c-163.645 0-287.015 59.797-287.015 139.147 0 79.316 123.37 139.113 287.015 139.113 163.611 0 286.987-59.797 286.987-139.113 0-79.35-123.37-139.147-286.987-139.147v0zM73.781 200.602c31.99-27.24 107.094-54.474 213.239-54.474 106.053 0 181.123 27.205 213.176 54.445-59.701-24.247-132.629-36.969-213.176-36.969-80.582 0-153.569 12.721-213.239 36.998v0zM287.021 89.669c-163.645 0-287.015 59.797-287.015 139.113 0 12.155 3.056 24.338 9.134 36.276 3.588 7.055 10.044 12.31 17.729 14.456 2.455 0.63 4.945 0.979 7.462 0.979 5.351 0 10.61-1.545 15.114-4.406 56.775-36.15 141.162-56.019 237.578-56.019 96.45 0 180.808 19.869 237.549 56.019 4.532 2.867 9.762 4.406 15.148 4.406 2.489 0 5.008-0.348 7.462-0.979 7.748-2.174 14.204-7.496 17.729-14.518 6.043-11.931 9.099-24.121 9.099-36.213 0-79.316-123.37-139.113-286.987-139.113v0zM73.781 52.729c31.99-27.24 107.094-54.474 213.239-54.474 106.053 0 181.123 27.24 213.176 54.445-59.701-24.247-132.629-36.969-213.176-36.969-80.582 0-153.569 12.721-213.239 36.998v0zM287.021-58.2c-163.645 0-287.015 59.797-287.015 139.113 0 12.121 3.056 24.338 9.134 36.276 3.588 7.055 10.044 12.31 17.729 14.456 2.426 0.63 4.91 0.944 7.399 0.944 5.414 0 10.673-1.51 15.177-4.378 56.712-36.15 141.070-56.019 237.578-56.019 96.479 0 180.837 19.869 237.549 55.985 4.566 2.867 9.791 4.406 15.148 4.406 2.518 0 5.036-0.348 7.496-0.979 7.685-2.14 14.141-7.434 17.695-14.547 6.043-11.931 9.099-24.087 9.099-36.15 0-79.316-123.37-139.113-286.987-139.113v0z" />
<glyph unicode="&#xe91d;" glyph-name="credit-card" horiz-adv-x="1263" d="M218.89 319.613c-15.355 0-28.153 11.040-30.503 26.224-1.277 8.145 0.727 16.322 5.624 22.946 4.866 6.692 12.006 11.040 20.221 12.317l489.611 75.251c15.18 0 28.362-11.248 30.674-26.155 1.277-8.178-0.758-16.322-5.624-22.977s-12.045-11.040-20.221-12.284l-489.783-75.32zM232.622 230.972c-15.387 0-28.19 10.97-30.503 26.187-2.588 16.803 8.973 32.639 25.777 35.261l243.185 37.574 3.899 0.24c15.249 0 28.5-11.281 30.743-26.256 1.245-8.107-0.758-16.253-5.656-22.911-4.866-6.661-12.006-11.040-20.221-12.284l-243.148-37.574-4.070-0.24zM977.142 897.38c-1.827 0-3.69-0.139-5.592-0.415l-872.465-134.772c-9.421-1.485-17.7-6.521-23.324-14.218-5.624-7.66-7.9-17.113-6.486-26.535l10.282-66.11 942.92 145.673-10.18 66.176c-2.654 17.22-17.77 30.194-35.16 30.194v0zM1201.141 563.038v66.972c0 31.849-25.914 57.726-57.758 57.726h-40.785l19.287-124.698h79.256zM103.785 498.171l942.989 145.641-14.768 96.059-943.023-145.673 14.8-96.022zM1201.141 404.041v97.127h-69.733l15.046-97.127h54.687zM156.849 154.547c2.691-17.182 17.77-30.194 35.16-30.194 1.864 0 3.728 0.139 5.624 0.449l872.498 134.772c9.384 1.448 17.631 6.452 23.293 14.149 5.624 7.66 7.9 17.113 6.486 26.535l-43.679 282.415-942.957-145.641 43.577-282.485zM202.808 56.384c0-31.849 25.878-57.758 57.726-57.758h882.849c31.849 0 57.758 25.914 57.758 57.758v285.795h-45.132l4.967-32.501c4-25.706-2.275-51.445-17.631-72.457-15.426-21.012-38.056-34.781-63.832-38.75 0 0-875.329-135.188-876.706-135.359v-6.73zM260.534-63.241c-65.936 0-119.592 53.651-119.592 119.624v20.873c-24.43 15.046-40.785 39.508-45.165 67.901l-87.572 566.897c-8.212 53.137 28.329 103.061 81.462 111.207l872.534 134.809c5.036 0.796 10.041 1.176 14.939 1.176 48.374 0 88.88-34.781 96.268-82.637l19.666-127.011h50.307c65.973 0 119.624-53.688 119.624-119.592v-573.627c0-65.973-53.651-119.624-119.624-119.624h-882.849z" />
<glyph unicode="&#xe91e;" glyph-name="document" horiz-adv-x="796" d="M185.045 486.781c-23.738 0-43.085 19.348-43.085 43.144s19.348 43.144 43.085 43.144h425.977c23.738 0 43.085-19.348 43.085-43.144s-19.348-43.144-43.085-43.144h-425.977zM185.045 302.814c-23.738 0-43.085 19.407-43.085 43.203 0 23.738 19.348 43.085 43.085 43.085h425.977c23.738 0 43.085-19.348 43.085-43.085 0-23.796-19.348-43.203-43.085-43.203h-425.977zM481.769 118.902c-23.738 0-43.085 19.348-43.085 43.144s19.348 43.144 43.085 43.144h129.251c23.738 0 43.085-19.348 43.085-43.144s-19.348-43.144-43.085-43.144h-129.251zM135.847 873.768c-20.709 0-37.565-16.855-37.565-37.565v-776.469c0-20.709 16.855-37.506 37.565-37.506h524.372c20.709 0 37.565 16.797 37.565 37.506v662.88l-108.424-0.654c-11.63 0-22.494 4.449-30.684 12.579-8.131 8.131-12.701 19.348-12.64 30.801l0.536 108.424h-410.724zM135.847-63.999c-68.248 0-123.794 55.487-123.794 123.735v776.469c0 68.248 55.546 123.794 123.794 123.794h457.073l4.39-1.008c11.454-2.848 18.040-6.528 23.202-11.748l150.796-150.796c5.161-5.22 8.725-11.689 10.8-19.289l0.889-3.087 0.949-8.131v-706.206c0-68.248-55.487-123.735-123.735-123.735h-524.372z" />
<glyph unicode="&#xe91f;" glyph-name="edit" horiz-adv-x="323" d="M222.077 232.367l-121.171 0.056v573.748h121.171v-573.804zM161.694 83.305l-28.345 64.48h56.692l-28.345-64.48zM306.667 883.085c0 42.379-34.48 76.914-76.914 76.914h-136.562c-42.379 0-76.86-34.536-76.86-76.914 0-1.249 0.287-2.389 0.343-3.578 0-0.623-0.343-1.134-0.343-1.822v-658.673c0-2.156 0.511-4.201 0.679-6.304-0.056-2.212 0.455-4.32 0.736-6.534 0.224-0.966 0.399-1.878 0.623-2.784 0.567-2.956 0.679-5.966 1.932-8.802l102.649-233.309c1.878-4.32 4.545-8.011 7.556-11.36 0.679-0.679 1.477-1.19 2.212-1.878 2.956-2.844 6.245-5.167 9.944-7.045 0.736-0.399 1.19-1.078 1.988-1.421 0.623-0.287 1.311-0.168 1.932-0.399 4.712-1.822 9.656-3.067 14.88-3.123 0.056 0 0.112-0.056 0.168-0.056h0.112c0.056 0 0.112 0.056 0.168 0.056 5.167 0.056 10.055 1.249 14.712 3.067 0.679 0.224 1.477 0.112 2.156 0.455 0.854 0.343 1.421 1.134 2.272 1.589 3.235 1.701 6.134 3.746 8.864 6.245 0.966 0.91 2.1 1.589 2.956 2.612 3.011 3.297 5.678 6.989 7.556 11.245l102.649 233.309c2.844 6.366 3.411 12.955 3.011 19.487 0.112 1.645 0.567 3.235 0.567 4.944v658.673c0 0.679-0.343 1.19-0.399 1.822 0.056 1.19 0.399 2.333 0.399 3.578v0z" />
<glyph unicode="&#xe920;" glyph-name="user" horiz-adv-x="979" d="M852.807 14.831c21.899 6.914 43.369 37.79 46.45 67.428l9.689 99.184c3.157 32.992-18.713 72.788-48.783 88.598-70.944 34.143-147.783 58.315-227.859 71.633l-31.132 5.172 7.381 53.036 9.394 8.069c15.795 13.588 26.275 30.418 27.313 43.924l5.281 44.703 17.28 7.371c8.413 3.589 14.147 11.471 14.994 20.555l9.662 94.252c0.717 6.914-1.196 13.614-5.389 18.866-1.219 1.526-2.629 2.921-4.062 4.019l-14.547 11.309 5.095 46.311c2.523 26.478 8.442 89.108-35.089 128.288-34.637 34.248-88.7 53.6-148.845 53.6-59.268 0-113.918-19.16-146.192-51.213-46.076-41.484-40.636-99.611-37.718-130.833l4.962-46.123-14.147-11.177c-1.701-1.314-3.267-2.897-4.805-4.715-3.876-4.903-5.733-11.364-5.016-17.981l9.689-94.228c0.957-9.272 6.743-17.288 15.076-20.905l17.333-7.477 4.723-42.557c1.329-14.901 11.994-32.4 27.841-46.014l9.315-7.905 7.724-53.061-31.372-5.225c-80.263-13.371-157.845-37.866-230.541-72.841-28.056-14.901-49.502-54.967-46.263-87.179 3.134-33.473 6.505-66.595 9.899-99.588 3-29.75 23.833-59.951 46.051-67.293h726.605zM116.359-50.022l-1.752 0.404c-57.33 13.4-93.69 74.448-98.789 125.098-3.424 33.098-6.847 66.384-9.952 99.828-5.866 58.772 29.252 124.136 81.696 151.979 63.701 30.687 130.479 53.84 199.168 69.169-9.952 16.455-16.033 34.007-17.541 51.078l-0.742 6.539c-20.303 15.036-33.708 38.429-36.336 64.051l-9.689 94.011c-2.629 23.879 4.219 47.436 19.271 66.25l1.090 1.34-1.352 12.597c-3.476 36.904-11.547 122.846 57.835 185.266 43.77 43.578 113.385 68.876 190.382 68.876 76.973 0 147.307-25.968 192.985-71.205 66.83-60.033 58.788-145.628 55.341-182.182l-1.381-13.371c0.29-0.375 0.609-0.751 0.877-1.097 15.047-18.842 21.899-42.504 19.322-66.677l-9.609-93.8c-2.336-25.645-15.818-49.201-36.546-64.344l-1.033-8.333c-1.167-15.945-7.062-32.881-16.854-49.014 68.158-15.194 134.089-38.030 196.276-67.938 53.959-28.354 89.976-94.199 84.325-153.399l-9.713-99.477c-5.414-51.454-42.255-112.771-99.849-125.338l-1.672-0.346-3.424-0.404-742.315 0.458z" />
<glyph unicode="&#xe921;" glyph-name="lock" horiz-adv-x="853" d="M426.533 149.447c-23.393 0-42.419 19.087-42.419 42.479v97.762c-26.086 15.016-42.718 42.539-42.718 72.933 0 46.967 38.17 85.137 85.137 85.137s85.137-38.17 85.137-85.137c0-30.394-16.633-57.916-42.718-72.933v-97.762c0-23.393-19.028-42.479-42.419-42.479v0zM597.467 618.516v85.558c0 94.172-76.702 170.878-170.938 170.878s-170.938-76.702-170.938-170.878v-85.558h341.871zM120.677 533.558c-19.683 0-35.78-16.033-35.78-35.78v-441.011c0-19.683 16.093-35.72 35.78-35.72h611.647c19.742 0 35.78 16.033 35.78 35.72v441.011c0 19.742-16.033 35.78-35.78 35.78h-611.647zM120.677-63.91c-66.53 0-120.678 54.147-120.678 120.678v441.011c0 66.53 54.147 120.738 120.678 120.738h50.017v85.558c0 141.020 114.756 255.836 255.836 255.836s255.836-114.816 255.836-255.836v-85.558h49.957c66.59 0 120.678-54.207 120.678-120.738v-441.011c0-66.53-54.088-120.678-120.678-120.678h-611.647z" />
<glyph unicode="&#xe922;" glyph-name="calendar" d="M380.696 170.676c-54.426 0-144.614 16.161-155.076 59.493-1.813 7.562-0.59 15.393 3.488 22.004s10.462 11.275 18.067 13.038c2.217 0.544 4.439 0.77 6.749 0.77 12.361 0 23.136-7.606 27.256-18.974 9.009-5.569 50.031-18.427 96.713-18.427 21.687 0 41.022 2.763 57.456 8.239 36.583 12.132 54.56 35.316 56.736 73.077 1.676 30.155-5.526 51.527-22.004 65.335-21.415 17.838-56.233 21.6-81.682 21.6-24.493 0-47.857-3.488-60.399-6.476-2.266-0.544-4.526-0.813-6.699-0.813-10.505 0-20.192 5.662-25.312 14.715-6.383 11.138-4.576 25.4 4.39 34.592l144.391 149.234h-163.589c-16.074 0-29.112 13.038-29.112 29.069s13.038 29.069 29.112 29.069h232.183c11.679 0 22.14-6.929 26.716-17.701s2.266-23.183-5.842-31.559l-137.506-142.125c47.001-1.13 84.172-12.902 110.616-35.043 31.105-25.989 45.504-64.068 42.742-113.149-4.39-77.92-57.729-127.094-146.247-135.016-7.2-0.633-14.895-0.95-22.91-0.95h-0.224zM699.628 170.040c-7.786 0-15.075 3.079-20.6 8.605-5.476 5.476-8.512 12.768-8.469 20.557l0.633 370.012-49.49-26.263c-4.21-2.217-8.872-3.44-13.628-3.44-10.778 0-20.645 5.929-25.673 15.441-7.519 14.218-2.13 31.832 12.045 39.345l92.231 48.992c4.21 2.266 8.922 3.44 13.672 3.44 5.296 0 10.505-1.496 15.031-4.21 8.605-5.159 13.988-14.715 13.988-24.903l-0.633-418.546c0-16.031-13.088-29.024-29.112-29.024v0zM812.826 37.831l109.119 109.211-109.393-0.224 0.273-108.983zM98.975 822.581c-21.054 0-38.122-17.068-38.122-38.122v-752.155c0-21.054 17.068-38.122 38.122-38.122h655.844l-0.453 181.563c-0.044 7.562 2.986 15.031 8.376 20.512 5.613 5.526 12.902 8.605 20.645 8.605l179.8 0.41v579.191c0 21.054-17.117 38.122-38.171 38.122h-127.956v-56.283c0-16.031-13.038-29.069-29.069-29.069s-29.069 13.038-29.069 29.069v56.283h-447.118v-56.283c0-16.031-13.038-29.069-29.069-29.069-16.074 0-29.112 13.038-29.112 29.069v56.283h-134.656zM98.975-64c-53.11 0-96.305 43.195-96.305 96.305v752.155c0 53.11 43.195 96.305 96.305 96.305h134.656v50.167c0 16.031 13.038 29.069 29.112 29.069 16.031 0 29.069-13.038 29.069-29.069v-50.167h447.118v50.167c0 16.031 13.038 29.069 29.069 29.069s29.069-13.038 29.069-29.069v-50.167h127.956c53.11 0 96.305-43.195 96.305-96.305v-611.023c0-12.225-7.469-22.818-19.017-27.121l-193.335-194.514c-2.217-8.332-12.815-15.801-25.040-15.801h-684.96z" />
<glyph unicode="&#xe923;" glyph-name="geoloc" d="M497.975 474.671c18.957-5.275 33.927-20.247 39.141-39.141l73.558-265.279 251.965 630.071-629.949-252.088 265.279-73.558zM597.366-61.043c-23.743 1.29-43.927 17.728-50.432 40.92l-109.569 395.034-394.973 109.569c-23.253 6.565-39.752 27.056-41.042 51.044-1.351 24.048 12.825 46.196 35.095 55.214l906.208 362.457c6.626 2.701 13.68 3.986 20.858 3.986 15.093 0 29.202-5.826 39.752-16.505 15.888-15.827 20.736-39.631 12.392-60.555l-362.518-906.025c-8.466-21.474-28.896-35.278-52.089-35.278l-3.68 0.122z" />
<glyph unicode="&#xe924;" glyph-name="pointer" horiz-adv-x="731" d="M365.362 629.826c-39.176 0-71.035-31.858-71.035-71.035 0-39.151 31.858-71.013 71.035-71.013s71.035 31.858 71.035 71.013c0 39.176-31.858 71.035-71.035 71.035v0zM365.362 429.096c-71.501 0-129.689 58.19-129.689 129.689 0 71.527 58.19 129.689 129.689 129.689s129.689-58.167 129.689-129.689c0-71.501-58.19-129.689-129.689-129.689v0zM362.623 850.768c-133.879-1.295-240.002-111.95-261.857-173.692-24.716-69.714-39.203-127.684 0-238.66 27.161-76.984 152.769-231.855 264.596-354.89 54.151 59.731 230.753 259.064 264.574 354.89 39.176 110.97 24.716 168.92 0.026 238.66-21.902 61.839-128.369 172.734-262.569 173.692-1.177-0.049-4.231-0.049-4.772 0v0zM364.532-11.589c-9.394 0-15.488 13.557-19.526 18.473l-1.909 5.312c-2.472 2.669-252.093 275.728-297.657 404.739-45.441 128.69-27.776 199.676 0.026 278.152 26.551 74.951 153.304 208.659 313.049 212.205l14.904 0.294 0.636-1.761c159.376-4.676 284.858-136.495 311.187-210.884 27.087-76.395 45.757-150.148 0.026-279.693-45.735-129.593-295.138-397.105-297.657-399.796l-1.932-8.442c-4.012-4.969-10.082-18.596-19.479-18.596h-1.663z" />
<glyph unicode="&#xe925;" glyph-name="send" horiz-adv-x="1072" d="M311.834 492.513l501.301-1.628-660.598 283.176 159.297-281.548zM205.515 397.051l28.782 50.808-27.397 48.333-33.727-50.627 32.341-48.514zM152.537 121.663l652.935 279.854-493.76 1.507-159.175-281.365zM15.93-2.518c-13.699 15.446-15.931 36.263-6.519 52.916l146.75 259.4-73.978 110.964c-10.078 15.025-10.078 34.516 0 49.599l75.367 113.075-148.134 261.877c-9.412 16.772-7.118 37.589 5.612 51.893 12.91 14.362 33.37 18.825 50.986 11.221l978.895-419.484c5.249-2.294 9.956-5.429 13.94-9.474 8.45-8.45 13.152-19.671 13.094-31.621 0-17.985-10.677-34.091-27.092-41.093l-978.833-419.543c-16.895-7.241-36.263-3.559-49.296 9.474l-0.787 0.787z" />
<glyph unicode="&#xe926;" glyph-name="suggest" d="M470.138 467.038l336.366 334.197-631.185-252.416 294.82-81.78zM462.885 332.13l-14.781 53.191-50.622 14.040 11.301-56.444 54.1-10.787zM611.609 112.527l249.565 623.763-331.288-329.176 81.723-294.589zM603.279-61.933c-19.462 1.198-34.87 13.64-39.721 31.046l-75.33 271.647-123.726 24.709c-16.78 3.31-29.792 16.379-33.158 33.215l-25.222 126.008-274.217 76.076c-17.463 4.908-29.905 20.316-30.933 38.405-0.971 18.202 9.759 34.926 26.596 41.658l935.194 374.087c5.078 1.999 10.33 3.027 15.695 3.027 11.301 0 21.969-4.451 29.905-12.442 11.985-12.041 15.639-29.905 9.359-45.6l-374.030-935.194c-6.506-16.152-21.914-26.652-39.319-26.652h-1.084z" />
<glyph unicode="&#xe927;" glyph-name="tip" horiz-adv-x="623" d="M163.959 598.169c-14.705 0-26.719 12.013-26.719 26.719 0 96.024 78.128 174.197 174.197 174.197 14.705 0 26.679-12.013 26.679-26.719 0-14.746-11.973-26.719-26.679-26.719-66.573 0-120.715-54.186-120.715-120.755 0-14.705-12.053-26.719-26.763-26.719v0zM192.503 273.595c-10.564 0-20.175 6.298-24.441 16.034-11.683 26.679-48.841 108.247-65.95 131.944-102.114 141.385-101.040 306.097 2.732 409.869 55.18 55.18 128.543 85.585 206.59 85.585 78.005-0.040 151.41-30.449 206.55-85.585 103.898-103.898 105.016-268.648 2.732-409.869-16.943-23.407-53.687-103.233-66.404-132.024-4.266-9.651-13.836-15.909-24.441-15.909-3.726 0-7.332 0.789-10.729 2.238-6.589 2.902-11.598 8.162-14.211 14.831-2.528 6.628-2.363 13.921 0.54 20.425 0.414 0.994 47.597 108.082 71.958 141.759 66.573 91.924 107.208 236.296 2.777 340.773-45.071 45.071-105.016 69.886-168.768 69.886s-123.737-24.816-168.813-69.886c-104.312-104.312-63.711-248.763 2.777-340.773 22.413-30.985 63.507-123.368 71.5-141.594 2.982-6.753 3.147-14.001 0.54-20.669-2.567-6.628-7.663-11.888-14.211-14.746-3.356-1.494-7.003-2.278-10.729-2.278v0zM193.452 186.311c-13.507 0-24.896 10.11-26.514 23.446-1.783 14.625 8.702 27.962 23.322 29.785 0 0 236.211 28.541 236.376 28.541 16.404 0 27.633-10.025 29.246-23.282 0.829-7.123-1.079-14.126-5.509-19.72-4.39-5.634-10.729-9.196-17.852-10.025l-239.068-28.751zM193.452 97.824c-13.507 0-24.896 10.11-26.514 23.487-1.783 14.625 8.656 27.923 23.282 29.746 0 0 236.211 28.541 236.376 28.541 16.364 0 27.673-10.025 29.286-23.282 0.829-7.083-1.079-14.086-5.509-19.72-4.39-5.594-10.729-9.156-17.852-10.025l-239.068-28.751zM310.731-21.028c-47.268 0-85.71 38.402-85.71 85.67 0 14.746 12.013 26.719 26.719 26.719 14.746 0 26.763-11.973 26.763-26.719 0-17.812 14.416-32.228 32.228-32.228s32.228 14.416 32.228 32.228c0 14.746 12.013 26.719 26.763 26.719 14.705 0 26.679-11.973 26.679-26.719 0-47.268-38.402-85.67-85.67-85.67v0z" />
<glyph unicode="&#xe928;" glyph-name="to-review" horiz-adv-x="1443" d="M1378.676 231.256c0-16.029-13.033-29.062-29.062-29.062h-518.095c-11.51 0-22.164-6.182-27.821-16.075l-82.234-142.258-82.142 142.258c-5.708 9.893-16.364 16.075-27.874 16.075h-518.141c-15.931 0-28.964 13.033-28.964 29.062v624.064c0 15.982 13.033 29.011 28.964 29.011h1256.307c16.029 0 29.062-13.033 29.062-29.011v-624.064zM1349.614 948.684h-1256.307c-51.463 0-93.317-41.901-93.317-93.363v-624.064c0-51.463 41.853-93.409 93.317-93.409h499.589l100.734-174.408c5.708-9.94 16.364-16.122 27.821-16.122s22.119 6.182 27.821 16.122l100.786 174.408h499.543c51.51 0 93.409 41.951 93.409 93.409v624.064c0 51.463-41.901 93.363-93.409 93.363v0zM1277.113 605.863l-77.859 11.319-34.817 70.58c-5.183 10.418-16.219 16.884-28.872 16.884s-23.689-6.47-28.872-16.884l-34.817-70.58-77.859-11.319c-12.225-1.807-22.164-10.177-26.014-21.876-3.758-11.798-0.664-24.444 8.179-33.011l56.358-54.886-13.362-77.575c-2.043-12.174 2.852-24.254 12.842-31.533 5.564-3.995 12.081-6.090 18.881-6.090 5.23 0 10.367 1.235 14.932 3.661l69.727 36.67 69.727-36.716c4.612-2.425 9.657-3.613 14.886-3.613 6.753 0 13.46 2.142 18.979 6.090 9.94 7.278 14.84 19.359 12.797 31.533l-13.362 77.575 56.358 54.886c8.797 8.56 11.937 21.212 8.133 33.011-3.804 11.7-13.744 20.069-25.969 21.876v0zM863.062 605.863l-77.905 11.319-34.817 70.58c-5.137 10.418-16.219 16.837-28.872 16.837s-23.689-6.419-28.872-16.884l-34.767-70.535-77.905-11.319c-12.225-1.807-22.164-10.177-26.014-21.876-3.758-11.798-0.664-24.444 8.179-33.011l56.358-54.886-13.316-77.575c-2.043-12.174 2.852-24.254 12.842-31.533 5.564-3.995 12.081-6.090 18.881-6.090 5.23 0 10.367 1.235 14.932 3.661l69.68 36.67 69.727-36.716c4.612-2.425 9.657-3.613 14.886-3.613 6.753 0 13.46 2.142 18.979 6.090 9.94 7.278 14.84 19.359 12.797 31.533l-13.362 77.575 56.41 54.886c8.797 8.56 11.937 21.212 8.133 33.011-3.804 11.7-13.744 20.069-25.969 21.876v0zM448.961 605.863l-77.859 11.319-34.817 70.58c-5.183 10.418-16.219 16.884-28.872 16.884s-23.689-6.47-28.872-16.884l-34.817-70.58-77.859-11.319c-12.225-1.807-22.164-10.177-26.014-21.876-3.758-11.798-0.664-24.444 8.179-33.011l56.312-54.886-13.316-77.575c-2.043-12.174 2.852-24.254 12.842-31.533 5.472-3.948 12.174-6.090 18.881-6.090 5.282 0 10.274 1.189 14.932 3.661l69.727 36.67 69.68-36.67c4.565-2.425 9.749-3.661 14.932-3.661 6.852 0 13.362 2.095 18.979 6.090 9.94 7.278 14.84 19.359 12.797 31.533l-13.414 77.575 56.41 54.886c8.797 8.56 11.937 21.212 8.133 33.011-3.804 11.7-13.744 20.069-25.969 21.876v0z" />
<glyph unicode="&#xe929;" glyph-name="facebook" horiz-adv-x="448" d="M296.564 624.516l0.259 88.352c0 45.97 4.035 70.683 64.924 70.683h81.311v176.449h-130.163c-156.345 0-211.344-85.664-211.344-229.524v-105.957h-97.505v-176.517h97.505v-512.001h195.015v512.001h130.163l17.225 176.517h-147.385z" />
<glyph unicode="&#xe92a;" glyph-name="google" horiz-adv-x="1092" d="M1092.002 707.013h-167.962l0.137-151.925-50.573 1.568v150.355h-168.032v50.097h168.032v167.144h50.573l-0.137-167.144h167.962v-50.097zM533.442 371.016l0.068-0.137c85.108-58.967 112.612-113.704 112.612-205.091 0-113.978-112.612-227.41-316.476-227.41-178.816 0-329.648 71.32-329.648 185.367 0 115.752 137.592 227.34 316.407 227.34 19.452 0 37.333 0.545 55.83 0.545-24.501 23.274-43.816 51.939-43.816 87.156 0 20.953 6.757 41.155 16.312 58.967-9.692-0.613-19.655-0.818-29.826-0.818-146.873 0-245.289 102.444-245.289 229.32 0 124.215 135.887 231.368 280.236 231.368 80.536 0 292.11-33.374 292.11-33.374l-42.179-17.677h-102.102c67.704-25.525 103.808-102.92 103.808-182.364 0-66.68-37.675-124.010-90.977-164.825-51.939-39.72-61.765-56.374-61.765-90.228 0-28.871 55.624-77.875 84.697-98.142v0zM485.667 718.068c-14.333 106.81-93.163 192.535-176.154 194.922-82.923 2.456-138.547-79.238-124.215-186.117 14.333-106.742 93.163-195.264 176.154-197.721 82.855-2.389 138.479 82.173 124.215 188.915v0zM430.522 309.32c-24.367 7.712-51.254 12.285-80.125 12.558-123.602 1.298-234.302-73.916-234.302-164.14 0-92.139 89.273-168.781 212.871-168.781 173.764 0 234.302 72.005 234.302 164.072 0 11.055-1.433 21.908-3.958 32.555-13.514 52.142-61.697 77.941-128.787 123.738v0z" />
<glyph unicode="&#xe92b;" glyph-name="twitter" horiz-adv-x="1260" d="M1260.003 825.937c-46.382-19.922-96.149-33.309-148.515-39.452 53.388 31.026 94.416 80.005 113.708 138.356-50.002-28.583-105.281-49.452-164.186-60.632-47.089 48.586-114.339 78.982-188.674 78.982-142.767 0-258.443-111.976-258.443-250.016 0-19.607 2.204-38.742 6.693-57.012-214.894 10.474-405.38 109.928-532.867 261.197-22.205-36.93-34.963-79.847-34.963-125.679 0-86.697 45.591-163.24 114.969-208.045-42.367 1.261-82.21 12.521-117.017 31.262-0.080-1.022-0.080-2.048-0.080-3.15 0-121.108 89.060-222.219 207.334-245.135-21.655-5.748-44.49-8.82-68.037-8.82-16.693 0-32.915 1.576-48.665 4.488 32.915-99.298 128.353-171.586 241.434-173.553-88.429-67.090-199.854-107.094-321.042-107.094-20.868 0-41.421 1.182-61.658 3.545 114.419-70.87 250.331-112.371 396.324-112.371 475.385 0 735.4 380.968 735.4 711.306 0 10.865-0.235 21.655-0.711 32.363 50.477 35.278 94.337 79.297 128.984 129.459z" />
<glyph unicode="&#xe92c;" glyph-name="instagram" d="M906.024 128.883c0-35.326-40.445-74.939-75.835-74.939h-640.026c-35.39 0-74.043 38.717-74.043 74.043v319.979c0 35.326 40.509 73.147 75.899 73.147h73.083c-5.376-20.607-9.087-50.877-9.087-73.147 0-141.367 114.616-255.983 255.983-255.983s255.983 114.616 255.983 255.983c0 22.271-3.776 51.645-9.087 72.251h73.083c35.39 0 74.043-35.966 74.043-71.355v-319.979zM512.002 575.957c117.88 0 127.991-127.991 127.991-127.991s3.776-127.991-127.991-127.991c-131.703 0-127.991 127.991-127.991 127.991s10.111 127.991 127.991 127.991v0zM703.989 768.013c0 35.262 28.67 63.932 63.996 63.932h63.996c35.39 0 63.996-28.67 63.996-63.932v-64.060c0-35.326-28.606-63.996-63.996-63.996h-63.996c-35.326 0-63.996 28.67-63.996 63.996v64.060zM895.976 960h-767.953c-70.651 0-127.991-57.404-127.991-128.055v-767.953c0-70.651 57.34-127.991 127.991-127.991h767.953c70.651 0 127.991 57.34 127.991 127.991v767.953c0 70.651-57.34 128.055-127.991 128.055v0z" />
<glyph unicode="&#xe92d;" glyph-name="messenger" horiz-adv-x="964" d="M529.901 328.248l-122.745 131.728-239.504-131.728 263.454 281.419 125.741-131.728 236.513 131.728-263.454-281.419zM482 933.001c-266.204 0-482.004-201.058-482.004-449.075 0-141.324 70.092-267.382 179.629-349.7v-171.227l164.119 90.632c43.802-12.198 90.2-18.779 138.255-18.779 266.205 0 482.004 201.058 482.004 449.074s-215.799 449.075-482.004 449.075v0z" />
<glyph unicode="&#xe92e;" glyph-name="notification-question" d="M511.942 281.762c-20.839 0-37.968 15.674-39.826 36.398-0.288 4.003-7.84 100.14 90.212 179.498 28.328 22.933 38.371 43.076 38.371 76.862 0 51.49-39.768 93.347-88.705 93.347-49.754 0-88.705-39.009-88.705-88.763 0-22.059-17.998-39.941-40.056-39.941s-39.998 17.883-39.998 39.941c0 94.624 74.136 168.76 168.76 168.76 93.060 0 168.702-77.792 168.702-173.344 0-58.054-20.96-100.896-68.039-139.040-63.858-51.669-60.896-108.445-60.838-110.822 1.743-21.77-14.688-40.988-36.634-42.725l-3.25-0.173zM506.080 150.969c-11.843 2.030-21.075 7.84-27.168 16.484-6.154 8.766-8.536 19.274-6.793 29.841 3.365 19.619 20.609 34.425 40.113 34.425l6.212-0.523c10.566-1.801 19.798-7.374 26.010-15.732 6.212-8.416 8.708-18.809 6.966-29.202-3.716-21.362-19.68-35.702-39.826-35.702l-5.516 0.408zM512 880.002c-238.248 0-431.971-193.78-431.971-432.032 0-238.191 193.723-431.971 431.971-431.971 238.191 0 431.914 193.78 431.914 431.971 0 238.248-193.723 432.032-431.914 432.032v0zM512-64.001c-282.314 0-511.968 229.66-511.968 511.968 0 282.371 229.66 512.032 511.968 512.032s511.968-229.66 511.968-512.032c0-282.314-229.66-511.968-511.968-511.968v0z" />
<glyph unicode="&#xe92f;" glyph-name="logo" d="M770.69 935.096h-202.275v-585.286c0-101.392-67.85-205.358-183.074-205.358-116.5 0-183.074 103.966-183.074 205.358h-1.276v585.286h-200.991v-585.286c0-214.341 122.896-388.903 385.341-388.903 262.452 0 385.349 174.562 385.349 388.903v585.286zM897.345 214.863c-69.947 0-126.655-56.853-126.655-126.982s56.705-126.982 126.655-126.982c69.947 0 126.655 56.853 126.655 126.982s-56.705 126.982-126.655 126.982z" />
<glyph unicode="&#xe930;" glyph-name="camera2" horiz-adv-x="1280" d="M502.532 871.68c-24.342 0-44.149 19.809-44.149 44.171 0 24.342 19.809 44.149 44.149 44.149h274.922c24.356 0 44.171-19.809 44.171-44.149 0-24.356-19.807-44.171-44.171-44.171h-274.922zM639.982 631.925c-127.21 0-230.737-103.519-230.737-230.773 0-127.21 103.519-230.737 230.737-230.737 127.254 0 230.773 103.521 230.773 230.737 0 127.254-103.519 230.773-230.773 230.773v0zM639.982 82.077c-175.93 0-319.071 143.14-319.071 319.071 0 175.953 143.14 319.093 319.071 319.093 175.953 0 319.115-143.14 319.115-319.093 0-175.93-143.162-319.071-319.115-319.071v0zM155.235 778.020c-32.139 0-58.287-26.148-58.287-58.31v-637.089c0-32.159 26.148-58.31 58.287-58.31h969.53c32.117 0 58.287 26.148 58.287 58.31v637.089c0 32.159-26.17 58.31-58.287 58.31h-969.53zM155.235-64c-80.838 0-146.607 65.77-146.607 146.63v637.087c0 80.86 65.77 146.63 146.607 146.63h969.53c80.838 0 146.607-65.77 146.607-146.63v-637.087c0-80.86-65.77-146.63-146.607-146.63h-969.53z" />
<glyph unicode="&#xe931;" glyph-name="download" horiz-adv-x="1208" d="M801.282 283.026c-30.727 0-55.741 25.162-55.741 56.085 0 30.91 25.014 56.072 55.741 56.072h136.866c1.952 0.395 3.891 0.629 5.865 0.79 86.874 7.678 152.569 79.887 152.569 167.989 0 93.043-75.217 168.719-167.687 168.719-38.625 0-76.356-13.565-106.219-38.231-9.951-8.167-22.531-12.658-35.438-12.658-4.987 0-9.974 0.672-14.808 1.989-18.307 5.411-32.368 19.078-38.058 36.695-24.76 76.071-94.895 127.235-174.474 127.235-82.439 0-155.193-55.954-176.957-136.061-4.203-15.392-14.749-28.292-28.889-35.4-7.528-3.839-16.136-5.909-24.818-5.909-7.157 0-14.176 1.376-20.87 4.095-17.095 6.874-34.988 10.377-53.178 10.377-79.267 0-143.734-64.912-143.734-144.699 0-79.771 64.464-144.684 143.734-144.684l7.042-0.489 147.898 0.233c30.727 0 55.741-25.162 55.741-56.072 0-30.932-25.014-56.085-55.72-56.085h-154.956c-2.62 0-5.147 0.175-7.63 0.512-136.634 2.595-247.565 117.378-247.565 256.585 0 141.612 114.495 256.841 255.193 256.841 13.401 0 26.792-1.060 40.032-3.188 49.426 101.408 151.652 166.101 264.673 166.101 103.242 0 197.826-53.665 251.296-141.253 36.752 17.206 77.061 26.244 117.698 26.244 153.917 0 279.112-126.016 279.112-280.899 0-141.451-104.579-260.833-243.554-278.537-5.147-1.594-10.482-2.4-15.9-2.4h-147.268zM604.004-63.86c-7.273 0-14.416 1.419-21.218 4.255-6.925 2.896-12.964 6.946-18.089 12.065l-156.698 157.752c-10.539 10.574-16.348 24.666-16.348 39.647 0 15.005 5.807 29.096 16.369 39.692 10.462 10.552 24.448 16.402 39.35 16.402 14.88 0 28.869-5.828 39.387-16.416l61.548-61.958v369.196c0 30.932 24.992 56.085 55.698 56.085s55.72-25.162 55.72-56.085v-369.196l61.526 61.958c10.482 10.574 24.484 16.416 39.408 16.416 14.867 0 28.811-5.828 39.35-16.38 21.712-21.851 21.748-57.426 0.097-79.304l-156.675-157.678c-5.147-5.2-11.23-9.31-18.053-12.146-6.943-2.874-14.104-4.315-21.377-4.315v0z" />
<glyph unicode="&#xe932;" glyph-name="notification-ops" d="M512-64c-282.77 0-512 229.23-512 512s229.23 512 512 512c282.77 0 512-229.23 512-512s-229.23-512-512-512zM512 14.771c239.266 0 433.229 193.963 433.229 433.229s-193.963 433.229-433.229 433.229c-239.266 0-433.229-193.963-433.229-433.229s193.963-433.229 433.229-433.229zM413.539 495.74c32.626 0 59.076 26.45 59.076 59.076s-26.45 59.076-59.076 59.076c-32.626 0-59.076-26.45-59.076-59.076s26.45-59.076 59.076-59.076zM610.461 495.74c32.626 0 59.076 26.45 59.076 59.076s-26.45 59.076-59.076 59.076c-32.626 0-59.076-26.45-59.076-59.076s26.45-59.076 59.076-59.076zM354.582 250.999c3.27 87.624 72.496 157.615 157.418 157.615 84.914 0 154.135-69.981 157.416-157.594 0.079-0.878 0.121-1.769 0.121-2.67v-7.676c0-16.006-12.351-24.738-27.686-20.012 0 0-51.085 20.656-129.854 20.656s-129.854-20.656-129.854-20.656c-15.291-4.953-27.686 4-27.686 20.012v7.676c0 0.893 0.042 1.775 0.121 2.649z" />
<glyph unicode="&#xe933;" glyph-name="lock-open" horiz-adv-x="843" d="M421.506 369.98c-4.362 0-7.896-3.532-7.896-7.896 0-4.334 3.532-7.896 7.896-7.896s7.896 3.565 7.896 7.896c0 4.362-3.532 7.896-7.896 7.896v0zM421.506 155.266c-19.323 0-35.052 15.73-35.052 35.052v102.427c-26.051 13.117-42.917 39.725-42.917 69.342 0 43.012 34.991 77.976 77.976 77.976s77.976-34.963 77.976-77.976c0-29.615-16.867-56.224-42.917-69.342v-102.427c0-19.323-15.73-35.052-35.052-35.052v0zM113.761 541.722c-24.085 0-43.658-19.568-43.658-43.686v-443.688c0-24.085 19.568-43.686 43.658-43.686h615.49c24.085 0 43.658 19.601 43.658 43.686v443.688c0 24.118-19.568 43.686-43.658 43.686h-615.49zM113.761-59.392c-62.735 0-113.763 51.027-113.763 113.735v443.688c0 62.735 51.027 113.796 113.763 113.796h76.56l-3.258 9.035c-22.737 62.457-19.756 130.11 8.388 190.507 28.14 60.307 78.064 106.054 140.615 128.846 27.683 10.077 56.436 15.178 85.5 15.178 36.405 0 71.765-7.926 105.13-23.472 60.34-28.14 106.081-78.064 128.846-140.644l12.533-28.758c7.681-17.757-0.463-38.433-18.159-46.115-4.423-1.935-9.124-2.919-13.981-2.919-13.947 0-26.575 8.266-32.134 21.105l-13.335 30.752c-17.022 46.543-50.047 82.826-93.393 103.041-24.085 11.213-49.557 16.9-75.697 16.9-20.86 0-41.475-3.654-61.321-10.906-45.006-16.376-80.894-49.279-101.107-92.658s-22.364-92.045-5.96-137.051l11.765-32.841h464.487c62.735 0 113.763-51.061 113.763-113.796v-443.688c0-62.702-51.027-113.735-113.763-113.735h-615.49z" />
<glyph unicode="&#xeabf;" glyph-name="apple" d="M814.488 417.198c-1.292 129.376 105.505 191.421 110.281 194.505-60.007 87.812-153.487 99.841-186.797 101.23-79.553 8.054-155.23-46.836-195.604-46.836-40.274 0-102.573 45.647-168.55 44.447-86.709-1.29-166.663-50.417-211.309-128.077-90.088-156.324-23.072-387.921 64.736-514.706 42.909-62.054 94.068-131.762 161.246-129.273 64.687 2.584 89.15 41.859 167.359 41.859s100.192-41.859 168.651-40.573c69.606 1.294 113.711 63.25 156.32 125.498 49.272 71.997 69.56 141.702 70.753 145.281-1.545 0.704-135.737 52.114-137.082 206.642zM685.854 796.865c35.654 43.254 59.719 103.264 53.152 163.135-51.359-2.089-113.609-34.208-150.452-77.365-33.061-38.287-61.999-99.39-54.243-158.059 57.328-4.473 115.854 29.136 151.544 72.29z" />
</font>
</defs>
</svg>
